<?xml version="1.0" encoding="utf-8"?>
<!-- Generator: Adobe Illustrator 18.0.0, SVG Export Plug-In . SVG Version: 6.00 Build 0)  -->
<!DOCTYPE svg PUBLIC "-//W3C//DTD SVG 1.1//EN" "http://www.w3.org/Graphics/SVG/1.1/DTD/svg11.dtd">
<svg version="1.1" id="Layer_1" xmlns="http://www.w3.org/2000/svg" xmlns:xlink="http://www.w3.org/1999/xlink" x="0px" y="0px"
	 viewBox="0 0 40 40" enable-background="new 0 0 40 40" xml:space="preserve">
<path fill-rule="evenodd" clip-rule="evenodd" fill="#B3B3B3" d="M20,2.5c-9.9,0-18,8.1-18,18c0,7.9,5.2,14.7,12.3,17.1
	c0.9,0.2,1.2-0.4,1.2-0.9c0-0.4,0-1.6,0-3.1c-5,1.1-6.1-2.4-6.1-2.4c-0.8-2.1-2-2.6-2-2.6c-1.6-1.1,0.1-1.1,0.1-1.1
	c1.8,0.1,2.8,1.9,2.8,1.9c1.6,2.7,4.2,2,5.2,1.5c0.2-1.2,0.6-2,1.1-2.4c-4-0.5-8.2-2-8.2-8.9c0-2,0.7-3.6,1.9-4.8
	c-0.2-0.5-0.8-2.3,0.2-4.8c0,0,1.5-0.5,4.9,1.8c1.4-0.4,3-0.6,4.5-0.6c1.5,0,3.1,0.2,4.5,0.6c3.4-2.3,4.9-1.8,4.9-1.8
	c1,2.5,0.4,4.3,0.2,4.8c1.2,1.3,1.8,2.9,1.8,4.8c0,6.9-4.2,8.4-8.2,8.9c0.6,0.6,1.2,1.7,1.2,3.3c0,2.4,0,4.3,0,4.9
	c0,0.5,0.3,1,1.2,0.9C32.8,35.1,38,28.4,38,20.4C38,10.5,29.9,2.5,20,2.5z"/>
</svg>
