<?xml version="1.0" encoding="utf-8"?>
<!-- Generator: Adobe Illustrator 18.0.0, SVG Export Plug-In . SVG Version: 6.00 Build 0)  -->
<!DOCTYPE svg PUBLIC "-//W3C//DTD SVG 1.1//EN" "http://www.w3.org/Graphics/SVG/1.1/DTD/svg11.dtd">
<svg version="1.1" id="Layer_1" xmlns="http://www.w3.org/2000/svg" xmlns:xlink="http://www.w3.org/1999/xlink" x="0px" y="0px"
	 viewBox="0 0 40 40" enable-background="new 0 0 40 40" xml:space="preserve">
<path fill="#B3B3B3" d="M6.6,1.9h26.8c2.5,0,4.6,2.1,4.6,4.6v26.8c0,2.6-2.1,4.6-4.6,4.6H6.6c-2.6,0-4.6-2.1-4.6-4.6V6.6
	C1.9,4,4,1.9,6.6,1.9z M28.3,6c-0.9,0-1.6,0.7-1.6,1.6v3.9c0,0.9,0.7,1.6,1.6,1.6h4.1c0.9,0,1.6-0.7,1.6-1.6V7.6
	C34,6.7,33.2,6,32.3,6H28.3z M34,17.2h-3.2c0.3,1,0.5,2,0.5,3.1c0,6-5,10.9-11.2,10.9c-6.2,0-11.2-4.9-11.2-10.9
	c0-1.1,0.2-2.1,0.5-3.1H6v15.3c0,0.8,0.6,1.4,1.4,1.4h25.2c0.8,0,1.4-0.6,1.4-1.4V17.2z M20,12.9c-4,0-7.3,3.1-7.3,7
	c0,3.9,3.2,7,7.3,7s7.3-3.2,7.3-7C27.3,16,24,12.9,20,12.9z"/>
</svg>
