<?xml version="1.0" encoding="utf-8"?>
<!-- Generator: Adobe Illustrator 18.0.0, SVG Export Plug-In . SVG Version: 6.00 Build 0)  -->
<!DOCTYPE svg PUBLIC "-//W3C//DTD SVG 1.1//EN" "http://www.w3.org/Graphics/SVG/1.1/DTD/svg11.dtd">
<svg version="1.1" id="Layer_1" xmlns="http://www.w3.org/2000/svg" xmlns:xlink="http://www.w3.org/1999/xlink" x="0px" y="0px"
	 viewBox="0 0 40 40" enable-background="new 0 0 40 40" xml:space="preserve">
<path fill="#B4B4B4" d="M35,1.9H5c-1.7,0-3.1,1.3-3.1,3v30.2c0,1.7,1.4,3,3.1,3h30c1.6,0,3-1.3,3.1-2.9V4.9
	C38.1,3.2,36.7,1.9,35,1.9z M13.1,31.9L13.1,31.9L7.8,32V16h5.3V31.9z M10.4,13.8c-1.8,0-2.9-1.2-3-2.8c0-1.6,1.2-2.8,3-2.8
	c1.9,0,3,1.2,3,2.8S12.3,13.8,10.4,13.8z M32.2,31.9h-5.3v-8.5c0-2.1-0.8-3.6-2.7-3.6c-1.4,0-2.3,0.9-2.7,1.9
	c-0.2,0.3-0.2,0.8-0.2,1.3v8.9H16c0,0,0.1-14.4,0-15.9h5.3v2.3c0.7-1.1,1.9-2.7,4.8-2.7c3.5,0,6.1,2.3,6.1,7.2V31.9z"/>
</svg>
