<?xml version="1.0" encoding="utf-8"?>
<!-- Generator: Adobe Illustrator 18.0.0, SVG Export Plug-In . SVG Version: 6.00 Build 0)  -->
<!DOCTYPE svg PUBLIC "-//W3C//DTD SVG 1.1//EN" "http://www.w3.org/Graphics/SVG/1.1/DTD/svg11.dtd">
<svg version="1.1" id="Layer_1" xmlns="http://www.w3.org/2000/svg" xmlns:xlink="http://www.w3.org/1999/xlink" x="0px" y="0px"
	 viewBox="0 0 40 40" enable-background="new 0 0 40 40" xml:space="preserve">
<g>
	<g>
		<path fill="#B4B4B4" d="M35,38.1H5c-1.7,0-3.1-1.3-3.1-3V4.9c0-1.7,1.4-3,3.1-3H35c1.7,0,3.1,1.3,3.1,3v30.3
			C38,36.8,36.6,38.1,35,38.1L35,38.1z"/>
	</g>
	<path fill-rule="evenodd" clip-rule="evenodd" fill="#FFFFFF" d="M13.1,31.9V16H7.8v16H13.1L13.1,31.9z M10.4,13.8
		c1.9,0,3-1.2,3-2.8c0-1.6-1.1-2.8-3-2.8c-1.8,0-3,1.2-3,2.8C7.5,12.6,8.6,13.8,10.4,13.8L10.4,13.8L10.4,13.8z"/>
	<path fill-rule="evenodd" clip-rule="evenodd" fill="#FFFFFF" d="M16,31.9h5.3V23c0-0.5,0-1,0.2-1.3c0.4-1,1.3-1.9,2.7-1.9
		c1.9,0,2.7,1.5,2.7,3.6v8.5h5.3v-9.1c0-4.9-2.6-7.2-6.1-7.2c-2.9,0-4.1,1.6-4.8,2.7h0V16H16C16.1,17.5,16,31.9,16,31.9L16,31.9z"/>
</g>
</svg>
