<?xml version="1.0" encoding="utf-8"?>
<!-- Generator: Adobe Illustrator 18.0.0, SVG Export Plug-In . SVG Version: 6.00 Build 0)  -->
<!DOCTYPE svg PUBLIC "-//W3C//DTD SVG 1.1//EN" "http://www.w3.org/Graphics/SVG/1.1/DTD/svg11.dtd">
<svg version="1.1" id="Layer_1" xmlns="http://www.w3.org/2000/svg" xmlns:xlink="http://www.w3.org/1999/xlink" x="0px" y="0px"
	 viewBox="0 0 40 40" enable-background="new 0 0 40 40" xml:space="preserve">
<path fill="#B3B3B3" d="M20,1.6C9.8,1.6,1.6,9.8,1.6,20c0,7.6,4.5,14,11,16.9c-0.1-1.3,0-2.8,0.3-4.2c0.4-1.5,2.4-10.1,2.4-10.1
	s-0.6-1.2-0.6-2.9c0-2.7,1.6-4.8,3.6-4.8c1.7,0,2.5,1.3,2.5,2.8c0,1.7-1.1,4.2-1.6,6.5c-0.5,2,1,3.6,2.9,3.6c3.5,0,5.8-4.5,5.8-9.8
	c0-4-2.7-7.1-7.7-7.1c-5.6,0-9.1,4.2-9.1,8.8c0,1.6,0.5,2.7,1.2,3.6c0.3,0.4,0.4,0.6,0.3,1c-0.1,0.3-0.3,1.2-0.4,1.5
	c-0.1,0.5-0.5,0.6-0.9,0.5c-2.6-1-3.8-3.9-3.8-7c0-5.2,4.4-11.5,13.2-11.5c7,0,11.7,5.1,11.7,10.6c0,7.2-4,12.6-10,12.6
	c-2,0-3.9-1.1-4.5-2.3c0,0-1.1,4.2-1.3,5.1c-0.4,1.4-1.2,2.8-1.9,4c1.7,0.5,3.4,0.8,5.2,0.8c10.2,0,18.4-8.3,18.4-18.4
	C38.4,9.8,30.2,1.6,20,1.6z"/>
</svg>
